<svg xmlns="http://www.w3.org/2000/svg" width="3440" height="1520" viewBox="0 0 3440 1520" fill="none">
  <defs>
    <linearGradient id="outerFill" x1="1720" y1="128" x2="1720" y2="1400" gradientUnits="userSpaceOnUse">
      <stop offset="0" stop-color="#FFB2E2"/>
      <stop offset="0.22" stop-color="#FF89D4"/>
      <stop offset="0.55" stop-color="#FC50B7"/>
      <stop offset="1" stop-color="#D31387"/>
    </linearGradient>
    <radialGradient id="gloss" cx="0" cy="0" r="1" gradientUnits="userSpaceOnUse" gradientTransform="translate(1720 246) rotate(90) scale(362 1500)">
      <stop offset="0" stop-color="white" stop-opacity="0.26"/>
      <stop offset="1" stop-color="white" stop-opacity="0"/>
    </radialGradient>
    <linearGradient id="bottomGlow" x1="1720" y1="960" x2="1720" y2="1400" gradientUnits="userSpaceOnUse">
      <stop offset="0" stop-color="#FF5CC0" stop-opacity="0"/>
      <stop offset="1" stop-color="#A90061" stop-opacity="0.2"/>
    </linearGradient>
    <filter id="shadow" x="14" y="86" width="3412" height="1366" filterUnits="userSpaceOnUse" color-interpolation-filters="sRGB">
      <feDropShadow dx="0" dy="12" stdDeviation="18" flood-color="#93004F" flood-opacity="0.22"/>
    </filter>
  </defs>
  <g filter="url(#shadow)">
    <rect x="72" y="128" width="3296" height="1272" rx="212" fill="url(#outerFill)"/>
    <rect x="72" y="128" width="3296" height="1272" rx="212" fill="url(#gloss)"/>
    <rect x="72" y="128" width="3296" height="1272" rx="212" fill="url(#bottomGlow)"/>
    <rect x="96" y="152" width="3248" height="1224" rx="188" stroke="#FFD9EF" stroke-opacity="0.8" stroke-width="22"/>
    <rect x="134" y="190" width="3172" height="1148" rx="170" stroke="#F76CC3" stroke-opacity="0.5" stroke-width="10"/>
    <path d="M214 186H3226V374C3226 467.888 3149.89 544 3056 544H384C290.112 544 214 467.888 214 374V186Z" fill="white" fill-opacity="0.13"/>
    <rect x="418" y="690" width="2604" height="420" rx="160" fill="white" fill-opacity="0.05"/>
    <rect x="418" y="690" width="2604" height="420" rx="160" stroke="white" stroke-opacity="0.08" stroke-width="8"/>
  </g>
</svg>
