<svg xmlns="http://www.w3.org/2000/svg" width="2800" height="1040" viewBox="0 0 2800 1040" fill="none">
  <defs>
    <linearGradient id="outerFill" x1="1400" y1="110" x2="1400" y2="930" gradientUnits="userSpaceOnUse">
      <stop offset="0" stop-color="#FFACDF"/>
      <stop offset="0.2" stop-color="#FF86D2"/>
      <stop offset="0.52" stop-color="#FD52B8"/>
      <stop offset="1" stop-color="#D31186"/>
    </linearGradient>
    <linearGradient id="centerWell" x1="1400" y1="264" x2="1400" y2="782" gradientUnits="userSpaceOnUse">
      <stop offset="0" stop-color="#FF79CA" stop-opacity="0.34"/>
      <stop offset="1" stop-color="#9A0056" stop-opacity="0.18"/>
    </linearGradient>
    <radialGradient id="gloss" cx="0" cy="0" r="1" gradientUnits="userSpaceOnUse" gradientTransform="translate(1400 212) rotate(90) scale(240 1180)">
      <stop offset="0" stop-color="white" stop-opacity="0.26"/>
      <stop offset="1" stop-color="white" stop-opacity="0"/>
    </radialGradient>
    <filter id="shadow" x="18" y="74" width="2764" height="892" filterUnits="userSpaceOnUse" color-interpolation-filters="sRGB">
      <feDropShadow dx="0" dy="10" stdDeviation="16" flood-color="#93004F" flood-opacity="0.2"/>
    </filter>
  </defs>
  <g filter="url(#shadow)">
    <rect x="56" y="110" width="2688" height="820" rx="196" fill="url(#outerFill)"/>
    <rect x="56" y="110" width="2688" height="820" rx="196" fill="url(#gloss)"/>
    <rect x="80" y="134" width="2640" height="772" rx="172" stroke="#FFD9EF" stroke-opacity="0.8" stroke-width="20"/>
    <rect x="114" y="168" width="2572" height="704" rx="156" stroke="#F76CC3" stroke-opacity="0.48" stroke-width="8"/>
    <rect x="752" y="274" width="1296" height="492" rx="144" fill="url(#centerWell)"/>
    <rect x="752" y="274" width="1296" height="492" rx="144" stroke="white" stroke-opacity="0.12" stroke-width="8"/>
    <path d="M194 160H2606V296C2606 376.634 2540.63 442 2460 442H340C259.366 442 194 376.634 194 296V160Z" fill="white" fill-opacity="0.12"/>
  </g>
</svg>
